# AST/ASF file generated using VICON BodyLanguage
# -----------------------------------------------
:version 1.10
:name VICON
:units
  mass 1.0
  length 0.45
  angle deg
:documentation
   .ast/.asf automatically generated from VICON data using
   VICON BodyBuilder and BodyLanguage model FoxedUp or BRILLIANT.MOD
:root
   order TX TY TZ RX RY RZ
   axis XYZ
   position 0 0 0  
   orientation 0 0 0 
:bonedata
  begin
     id 1 
     name lhipjoint
     direction 0.566809 -0.746272 0.349008 
     length 2.40479 
     axis 0 0 0  XYZ
  end
  begin
     id 2 
     name lfemur
     direction 0.34202 -0.939693 0  
     length 7.1578  
     axis 0 0 20  XYZ
    dof rx ry rz
    limits (-160.0 20.0)
           (-70.0 70.0)
           (-60.0 70.0)
  end
  begin
     id 3 
     name ltibia
     direction 0.34202 -0.939693 0   
     length 7.49137   
     axis 0 0 20   XYZ
    dof rx
    limits (-10.0 170.0)
  end
  begin
     id 4 
     name lfoot
     direction 0.0665746 -0.182912 0.980873   
     length 2.36784   
     axis -90 7.62852e-016 20   XYZ
    dof rx rz
    limits (-45.0 90.0)
           (-70.0 20.0)
  end
  begin
     id 5 
     name ltoes
     direction 1.53601e-011 -4.22058e-011 1   
     length 1.18966   
     axis -90 7.62852e-016 20   XYZ
    dof rx
    limits (-90.0 20.0)
  end
  begin
     id 6 
     name rhipjoint
     direction -0.550236 -0.756381 0.353735   
     length 2.37265  
     axis 0 0 0  XYZ 
  end
  begin
     id 7 
     name rfemur
     direction -0.34202 -0.939693 0   
     length 7.43386   
     axis 0 0 -20   XYZ
    dof rx ry rz
    limits (-160.0 20.0)
           (-70.0 70.0)
           (-70.0 60.0)
  end
  begin
     id 8 
     name rtibia
     direction -0.34202 -0.939693 0   
     length 7.50908   
     axis 0 0 -20   XYZ
    dof rx
    limits (-10.0 170.0)
 end
 begin
     id 9 
     name rfoot
     direction -0.0683029 -0.187661 0.979856   
     length 2.41173  
     axis -90 -7.62852e-016 -20   XYZ
    dof rx rz
    limits (-45.0 90.0)
           (-20.0 70.0)
  end
  begin
     id 10 
     name rtoes
     direction -1.53528e-011 -4.21968e-011 1   
     length 1.21082   
     axis -90 -7.62852e-016 -20   XYZ
    dof rx
    limits (-90.0 20.0)
  end
  begin
     id 11 
     name lowerback
     direction 0.013823 0.995423 -0.0945635   
     length 2.04495   
     axis 0 0 0   XYZ
    dof rx ry rz
    limits (-20.0 45.0)
           (-30.0 30.0)
           (-30.0 30.0)
  end
  begin
     id 12 
     name upperback
     direction 0.0276657 0.9994 -0.020853   
     length 2.05008   
     axis 0 0 0   XYZ
    dof rx ry rz
    limits (-20.0 45.0)
           (-30.0 30.0)
           (-30.0 30.0)
  end
  begin
     id 13 
     name thorax
     direction 0.019782 0.999531 0.0233827   
     length 2.06488   
     axis 0 0 0   XYZ
    dof rx ry rz
    limits (-20.0 45.0)
           (-30.0 30.0)
           (-30.0 30.0)
  end
  begin
     id 14 
     name lowerneck
     direction -0.0308541 0.994709 0.0979874   
     length 1.75553   
     axis 0 0 0   XYZ
    dof rx ry rz
    limits (-20.0 45.0)
           (-30.0 30.0)
           (-30.0 30.0)
  end
  begin
     id 15 
     name upperneck
     direction 0.0588398 0.995804 -0.0700903   
     length 1.76878   
     axis 0 0 0   XYZ
    dof rx ry rz
    limits (-20.0 45.0)
           (-30.0 30.0)
           (-30.0 30.0)
  end
  begin
     id 16
     name head
     direction 0.0209966 0.999159 -0.0352225  
     length 1.77193  
     axis 0 0 0   XYZ
    dof rx ry rz
    limits (-20.0 45.0)
           (-30.0 30.0)
           (-30.0 30.0)
  end
  begin
     id 17 
     name lclavicle
     direction 0.938182 0.335073 -0.0868338  
     length 3.58396  
     axis 0 0 0   XYZ
    dof ry rz
    limits (-20.0 10.0)
           (0.0 20.0)
  end
  begin
     id 18 
     name lhumerus
     direction 1 -4.48971e-011 -1.26313e-017   
     length 4.983   
     axis 180 -30 -90   XYZ
    dof rx ry rz
    limits (-60.0 90.0)
           (-90.0 90.0)
           (-90.0 90.0)
  end
  begin
     id 19
     name lradius
     direction 1 -4.48948e-011 -5.89033e-027   
     length 3.48356   
     axis 180 -30 -90   XYZ
    dof rx
    limits (-10.0 170.0)
  end
  begin
     id 20
     name lwrist
     direction 1 -4.48977e-011 -1.48983e-026   
     length 1.74178   
     axis 9.0955e-015 90 90   XYZ
    dof ry
    limits (-180.0 0.0)
 end
  begin
     id 21 
     name lhand
     direction 1 -4.49046e-011 -2.98066e-026   
     length 0.715259   
     axis 1.90115e-014 90 90   XYZ
    dof rx rz
    limits (-90.0 90.0)
           (-45.0 45.0)
  end
  begin
     id 22 
     name lfingers
     direction 1 -4.48907e-011 -5.95731e-026   
     length 0.576661   
     axis 3.80223e-014 90 90   XYZ
    dof rx
    limits (0.0 90.0)
  end
  begin
     id 23
     name lthumb
     direction 0.707107 -6.34963e-011 0.707107   
     length 0.827973   
     axis -90 45 -3.84942e-014   XYZ
    dof rx rz
    limits (-45.0 45.0)
           (-45.0 45.0)
  end
  begin
     id 24 
     name rclavicle
     direction -0.909637 0.398485 -0.11735   
     length 3.44819  
     axis 0 0 0   XYZ 
    dof ry rz
    limits (-10.0 20.0)
           (-20.0 0.0)
  end
  begin
     id 25 
     name rhumerus
     direction -1 -4.48978e-011 -1.09333e-027  
     length 5.2419   
     axis 180 30 90   XYZ
    dof rx ry rz
    limits (-90.0 60.0)
           (-90.0 90.0)
           (-90.0 90.0)
  end
  begin
     id 26 
     name rradius
     direction -1 -4.48953e-011 -7.61841e-027   
     length 3.44417   
     axis 180 30 90   XYZ
    dof rx
    limits (-10.0 170.0)
  end
  begin
     id 27 
     name rwrist
     direction -1 -4.48977e-011 -1.48983e-026   
     length 1.72209   
     axis 9.0955e-015 -90 -90   XYZ
    dof ry
    limits (-180.0 0.0)
  end
  begin
     id 28
     name rhand
     direction -1 -4.49027e-011 -2.98038e-026   
     length 0.622529   
     axis 1.90115e-014 -90 -90   XYZ
    dof rx rz
    limits (-90.0 90.0)
           (-45.0 45.0)
  end
  begin
     id 29
     name rfingers
     direction -1 -4.48838e-011 -5.95531e-026   
     length 0.501899   
     axis 3.80223e-014 -90 -90   XYZ
    dof rx
    limits (0.0 90.0)
  end
  begin
     id 30
     name rthumb
     direction -0.707107 -6.34937e-011 0.707107   
     length 0.720629   
     axis -90 -45 3.84942e-014   XYZ
    dof rx rz
    limits (-45.0 45.0)
           (-45.0 45.0)
  end
:hierarchy
  begin
    root lhipjoint rhipjoint lowerback
    lhipjoint lfemur
    lfemur ltibia
    ltibia lfoot
    lfoot ltoes
    rhipjoint rfemur
    rfemur rtibia
    rtibia rfoot
    rfoot rtoes
    lowerback upperback
    upperback thorax
    thorax lowerneck lclavicle rclavicle
    lowerneck upperneck
    upperneck head
    lclavicle lhumerus
    lhumerus lradius
    lradius lwrist
    lwrist lhand lthumb
    lhand lfingers
    rclavicle rhumerus
    rhumerus rradius
    rradius rwrist
    rwrist rhand rthumb
    rhand rfingers
  end

#!OML:ASF F:\VICON\USERDATA\Patient Classification 1\PLAYGROUND\JustinFriday\JustinFriday.ASF
:FULLY-SPECIFIED
:DEGREES
269
root -1.22547 17.962 27.6866 -177.041 -156.585 171.658
lowerback 9.73404 1.2879 4.94033
upperback 3.91706 2.2017 4.95763
thorax -1.38537 1.07739 2.13241
lowerneck -8.60325 1.87346 -3.46162
upperneck 25.3483 3.93809 -3.11134
head 9.40327 1.13362 -0.0766354
rclavicle -6.12257e-014 -3.10104e-014
rhumerus -36.3138 -31.939 -62.6611
rradius 11.5489
rwrist 16.5516
rhand -18.4339 -21.517
rfingers 7.12502
rthumb 7.85151 -51.3512
lclavicle -6.12257e-014 -3.10104e-014
lhumerus -36.4485 8.22934 81.3866
lradius 30.7592
lwrist -1.67257
lhand -8.92004 -7.24949
lfingers 7.12502
lthumb 17.0234 22.0246
rfemur -10.4915 0.855933 27.2511
rtibia 21.3599
rfoot -5.46324 -7.02757
rtoes 18.8525
lfemur -11.8384 2.78791 -10.9956
ltibia 65.3512
lfoot 11.3083 -9.97
ltoes 13.1889
270
root -1.28251 17.9723 27.7775 -176.566 -157.82 171.408
lowerback 9.32333 1.23434 5.30843
upperback 3.77869 2.14255 5.01302
thorax -1.29058 1.05226 1.99845
lowerneck -6.84441 2.19949 -0.815173
upperneck 23.0891 4.46038 -6.10394
head 8.41758 1.41351 -1.50105
rclavicle 5.52621e-014 1.03368e-014
rhumerus -35.984 -32.4021 -62.6306
rradius 11.6328
rwrist 17.0159
rhand -17.9167 -22.1146
rfingers 7.12502
rthumb 8.35074 -51.9295
lclavicle 5.52621e-014 1.03368e-014
lhumerus -36.4691 7.67187 81.6757
lradius 31.0467
lwrist -1.19603
lhand -8.6597 -7.20111
lfingers 7.12502
lthumb 17.274 22.0512
rfemur -10.3585 0.411321 27.6334
rtibia 21.0298
rfoot -5.91462 -7.69519
rtoes 19.2851
lfemur -13.8693 2.82281 -10.4485
ltibia 66.1347
lfoot 9.9621 -9.913
ltoes 11.2193
271
root -1.3376 17.9738 27.8716 -176.084 -158.785 171.116
lowerback 8.90157 1.35065 5.77629
upperback 3.54306 2.32113 5.12416
thorax -1.28711 1.14329 1.84296
lowerneck -6.9241 1.87219 -1.94543
upperneck 23.7662 3.99197 -5.06319
head 8.60842 1.17656 -1.00636
rclavicle 2.16675e-014 -4.21423e-014
rhumerus -35.612 -31.3745 -63.1952
rradius 11.9402
rwrist 15.3407
rhand -17.785 -22.4972
rfingers 7.12502
rthumb 8.47786 -52.3071
lclavicle 2.16675e-014 -4.21423e-014
lhumerus -36.634 7.23978 82.0671
lradius 31.2373
lwrist -1.17433
lhand -8.49236 -7.01537
lfingers 7.12502
lthumb 17.435 22.2227
rfemur -10.2666 0.0498632 28.0362
rtibia 20.7747
rfoot -6.3967 -8.14668
rtoes 19.9972
lfemur -15.7371 3.03718 -9.97041
ltibia 66.6833
lfoot 8.89801 -9.70529
ltoes 10.7087
272
root -1.39125 17.977 27.9851 -175.823 -158.856 170.975
lowerback 8.4469 1.61666 6.00352
upperback 3.55655 2.64777 5.08344
thorax -1.00579 1.31389 1.65774
lowerneck -7.63276 1.60976 -3.34272
upperneck 24.9024 3.57225 -3.45024
head 9.07273 0.972839 -0.259592
rclavicle -5.96354e-015 3.26007e-014
rhumerus -34.86 -29.9495 -64.287
rradius 12.2414
rwrist 13.4056
rhand -17.9881 -22.2146
rfingers 7.12502
rthumb 8.28178 -52.0323
lclavicle -5.96354e-015 3.26007e-014
lhumerus -36.8832 7.32019 82.1175
lradius 31.6727
lwrist -1.17751
lhand -8.2717 -7.01376
lfingers 7.12502
lthumb 17.6474 22.2054
rfemur -9.95266 -0.108553 28.1562
rtibia 20.6282
rfoot -6.72208 -7.93832
rtoes 20.2029
lfemur -16.8793 3.89869 -9.85626
ltibia 66.9634
lfoot 7.59976 -9.58456
ltoes 11.1256
273
root -1.44135 17.9841 28.1047 -175.958 -158.668 171.149
lowerback 8.32564 1.88137 5.84441
upperback 3.69337 2.96315 4.95583
thorax -0.794101 1.47654 1.59324
lowerneck -6.98795 1.71123 -2.43174
upperneck 23.7952 3.75178 -4.59981
head 8.60858 1.06845 -0.789398
rclavicle 3.77691e-015 5.40694e-014
rhumerus -34.0637 -29.0439 -65.1278
rradius 12.505
rwrist 12.4477
rhand -17.9896 -21.9662
rfingers 7.12502
rthumb 8.28036 -51.7839
lclavicle 3.77691e-015 5.40694e-014
lhumerus -37.1874 7.37888 82.1326
lradius 32.1952
lwrist -0.861625
lhand -8.15731 -7.09793
lfingers 7.12502
lthumb 17.7575 22.1113
rfemur -9.29833 -0.237138 27.8918
rtibia 20.5024
rfoot -6.99651 -7.58371
rtoes 21.3474
lfemur -17.5488 4.84275 -10.1488
ltibia 67.05
lfoot 6.25922 -9.32716
ltoes 8.92332
274
root -1.48885 17.9929 28.2135 -175.948 -159.117 171.123
lowerback 8.41915 1.99039 5.93783
upperback 3.59277 3.1328 4.92841
thorax -0.941279 1.55895 1.49251
lowerneck -6.77605 1.69841 -2.07075
upperneck 23.5761 3.78127 -5.12581
head 8.51169 1.07448 -1.02546
rclavicle -4.85035e-014 -2.22639e-014
rhumerus -33.4379 -28.1789 -65.7159
rradius 12.6573
rwrist 11.1982
rhand -17.5998 -22.0379
rfingers 7.12502
rthumb 8.65653 -51.8404
lclavicle -4.85035e-014 -2.22639e-014
lhumerus -37.6458 7.11944 82.2503
lradius 32.6566
lwrist -0.655586
lhand -8.16489 -7.10676
lfingers 7.12502
lthumb 17.7502 22.1031
rfemur -8.75415 -0.546714 27.9246
rtibia 20.3123
rfoot -7.3885 -7.6804
rtoes 19.4705
lfemur -18.6117 5.38417 -10.1384
ltibia 67.0784
lfoot 5.08502 -9.3122
ltoes 8.05736
275
root -1.53617 17.9995 28.3035 -175.556 -160.425 170.804
lowerback 8.2251 1.84571 6.41623
upperback 3.43332 2.97378 4.9698
thorax -0.978255 1.4814 1.28823
lowerneck -6.66134 1.69138 -1.694
upperneck 23.2675 3.80279 -5.59352
head 8.40109 1.08578 -1.24316
rclavicle 2.84262e-014 -3.33958e-014
rhumerus -32.4411 -26.6828 -66.8043
rradius 12.7712
rwrist 8.81458
rhand -17.4172 -22.0491
rfingers 7.12502
rthumb 8.83279 -51.8442
lclavicle 2.84262e-014 -3.33958e-014
lhumerus -37.3708 7.03473 82.3353
lradius 32.5816
lwrist -0.501581
lhand -8.19233 -7.02134
lfingers 7.12502
lthumb 17.7238 22.1909
rfemur -8.60647 -0.926888 28.4452
rtibia 20.1392
rfoot -7.89139 -8.4913
rtoes 18.6037
lfemur -20.4261 5.32099 -9.6202
ltibia 67.1271
lfoot 4.4095 -9.54281
ltoes 9.09099
276
root -1.58372 18.0011 28.395 -175.388 -161.759 170.673
lowerback 7.99347 1.6671 6.73533
upperback 3.41777 2.7398 4.94818
thorax -0.854094 1.37088 1.1169
lowerneck -8.80925 1.12631 -4.77402
upperneck 26.1266 2.93218 -1.97016
head 9.68482 0.653962 0.440677
rclavicle -3.97569e-014 8.11041e-014
rhumerus -31.9571 -26.471 -67.2475
rradius 13.6833
rwrist 8.07151
rhand -17.2482 -22.0115
rfingers 7.12502
rthumb 8.99588 -51.7997
lclavicle -3.97569e-014 8.11041e-014
lhumerus -37.57 6.91005 82.4686
lradius 33.1227
lwrist 0.416726
lhand -8.61813 -7.11872
lfingers 7.12502
lthumb 17.314 22.1301
rfemur -8.32377 -1.16188 28.8051
rtibia 20.1078
rfoot -8.53663 -9.47365
rtoes 18.4379
lfemur -21.9951 5.09036 -9.28583
ltibia 67.0279
lfoot 3.81386 -9.69634
ltoes 10.6348
277
root -1.63312 18.0013 28.5044 -175.117 -162.122 170.471
lowerback 7.68316 1.8317 7.01724
upperback 3.37373 2.94928 4.89194
thorax -0.703433 1.48147 0.897097
lowerneck -9.27604 0.972137 -5.56968
upperneck 26.6627 2.69354 -1.06308
head 9.94579 0.547515 0.873822
rclavicle -8.74653e-015 7.95139e-015
rhumerus -31.3551 -24.5733 -68.5225
rradius 14.7415
rwrist 5.11975
rhand -18.1055 -22.2813
rfingers 7.12502
rthumb 8.16853 -52.1034
lclavicle -8.74653e-015 7.95139e-015
lhumerus -37.9976 6.79476 82.6106
lradius 33.6575
lwrist 1.18855
lhand -9.54453 -7.26069
lfingers 7.12502
lthumb 16.4222 22.0642
rfemur -8.27468 -1.14811 29.0681
rtibia 20.4419
rfoot -9.24482 -9.73966
rtoes 19.1894
lfemur -23.1674 5.78732 -9.11252
ltibia 66.7445
lfoot 2.37142 -10.0097
ltoes 9.31755
278
root -1.68684 17.9935 28.6292 -174.341 -161.144 169.933
lowerback 6.92009 2.49282 7.31502
upperback 3.35822 3.76301 4.90628
thorax -0.247921 1.90059 0.726957
lowerneck -9.38559 0.926181 -5.63593
upperneck 26.6476 2.63416 -0.977334
head 9.96058 0.525213 0.91
rclavicle -2.76311e-014 -6.59965e-014
rhumerus -30.7708 -22.6564 -69.5653
rradius 15.8152
rwrist 2.6027
rhand -17.5285 -23.2434
rfingers 7.12502
rthumb 8.72538 -53.043
lclavicle -2.76311e-014 -6.59965e-014
lhumerus -38.0735 6.8079 82.6707
lradius 33.8297
lwrist 1.0767
lhand -10.0192 -6.96758
lfingers 7.12502
lthumb 15.9652 22.3945
rfemur -8.60173 -0.50751 29.4295
rtibia 20.7144
rfoot -9.67919 -9.14805
rtoes 20.6074
lfemur -24.1356 7.82135 -8.85878
ltibia 66.229
lfoot 0.317484 -10.4373
ltoes 6.00933
279
root -1.71907 17.9427 28.6729 -174.382 -163.671 170.204
lowerback 7.45006 1.88419 7.25817
upperback 3.05445 3.04221 4.93455
thorax -0.892413 1.52169 0.80257
lowerneck -9.28059 0.94316 -5.29741
upperneck 26.2767 2.69632 -1.43614
head 9.81762 0.550516 0.696063
rclavicle -2.76311e-014 -7.15625e-015
rhumerus -30.1492 -21.2019 -70.2072
rradius 16.3766
rwrist -0.033978
rhand -18.2846 -22.3193
rfingers 7.12502
rthumb 7.99566 -52.1481
lclavicle -2.76311e-014 -7.15625e-015
lhumerus -38.0283 6.99024 82.6765
lradius 33.8989
lwrist 0.832444
lhand -10.0795 -6.74954
lfingers 7.12502
lthumb 15.9071 22.6172
rfemur -8.71241 -1.39836 29.6136
rtibia 21.0384
rfoot -10.5972 -10.7586
rtoes 19.9069
lfemur -26.1403 6.68271 -9.02794
ltibia 65.7776
lfoot -0.956018 -11.3496
ltoes 2.25609
280
root -1.76063 17.9431 28.783 -174.278 -163.894 170.14
lowerback 7.43417 2.01553 7.23912
upperback 3.02931 3.21641 4.93297
thorax -0.904268 1.60803 0.798532
lowerneck -8.93288 1.05496 -4.65368
upperneck 25.5899 2.88325 -2.2176
head 9.52422 0.639652 0.33033
rclavicle 6.63941e-014 4.21423e-014
rhumerus -29.5508 -19.7458 -70.8039
rradius 17.2628
rwrist -1.6644
rhand -17.6448 -22.6205
rfingers 7.12502
rthumb 8.61308 -52.4248
lclavicle 6.63941e-014 4.21423e-014
lhumerus -38.0676 7.19829 82.6941
lradius 34.0046
lwrist 1.0448
lhand -10.4733 -6.84962
lfingers 7.12502
lthumb 15.5278 22.5469
rfemur -8.49374 -1.54375 29.7217
rtibia 21.3794
rfoot -11.5397 -10.7609
rtoes 19.7666
lfemur -27.0369 7.29689 -9.11884
ltibia 65.0498
lfoot -2.3798 -11.452
ltoes -0.321367
281
root -1.79941 17.9388 28.8913 -174.195 -164.163 170.057
lowerback 7.40543 2.15771 7.34118
upperback 3.03195 3.40833 4.87587
thorax -0.868401 1.70579 0.670793
lowerneck -8.32384 1.18241 -3.74079
upperneck 24.5675 3.05405 -3.18358
head 9.0757 0.741341 -0.143682
rclavicle 7.35503e-015 -1.27222e-014
rhumerus -29.0983 -17.8185 -71.6313
rradius 18.4412
rwrist -4.09454
rhand -18.1626 -22.4917
rfingers 7.12502
rthumb 8.11336 -52.3159
lclavicle 7.35503e-015 -1.27222e-014
lhumerus -37.8945 7.1077 82.763
lradius 33.906
lwrist 1.4509
lhand -10.7748 -7.11192
lfingers 7.12502
lthumb 15.2374 22.3069
rfemur -8.22367 -1.6296 29.8385
rtibia 21.5622
rfoot -12.3829 -10.8355
rtoes 20.289
lfemur -28.007 7.85554 -9.18069
ltibia 64.18
lfoot -3.38907 -11.4811
ltoes -0.988628
